<svg width="60" height="67" viewBox="0 0 60 67" fill="none" xmlns="http://www.w3.org/2000/svg">
<path d="M2 14.6H8.22222M8.22222 14.6H58M8.22222 14.6V58.7C8.22222 60.3709 8.87778 61.9733 10.0447 63.1548C11.2116 64.3363 12.7942 65 14.4444 65H45.5556C47.2058 65 48.7884 64.3363 49.9553 63.1548C51.1222 61.9733 51.7778 60.3709 51.7778 58.7V14.6H8.22222ZM17.5556 14.6V8.3C17.5556 6.62914 18.2111 5.02671 19.378 3.84523C20.5449 2.66375 22.1275 2 23.7778 2H36.2222C37.8725 2 39.4551 2.66375 40.622 3.84523C41.7889 5.02671 42.4444 6.62914 42.4444 8.3V14.6M23.7778 30.35V49.25M36.2222 30.35V49.25" stroke="#C93939" stroke-width="4" stroke-linecap="round" stroke-linejoin="round"/>
</svg>
